<?xml version="1.0" encoding="UTF-8" standalone="no"?>
<!DOCTYPE svg PUBLIC "-//W3C//DTD SVG 1.1//EN" "http://www.w3.org/Graphics/SVG/1.1/DTD/svg11.dtd">
<svg width="100%" height="100%" viewBox="0 0 355 195" version="1.1" xmlns="http://www.w3.org/2000/svg" xmlns:xlink="http://www.w3.org/1999/xlink" xml:space="preserve" xmlns:serif="http://www.serif.com/" style="fill-rule:evenodd;clip-rule:evenodd;stroke-linejoin:round;stroke-miterlimit:1.41421;">
    <g id="Artboard1" transform="matrix(1,0,0,1,-379.203,-166.569)">
        <rect x="379.203" y="166.569" width="354.39" height="194.417" style="fill:none;"/>
        <clipPath id="_clip1">
            <rect x="379.203" y="166.569" width="354.39" height="194.417"/>
        </clipPath>
        <g clip-path="url(#_clip1)">
            <g transform="matrix(1,0,0,1,506.565,240.606)">
                <path d="M0,-36.734L105.029,-36.734L90.416,-36.734L-14.613,-36.734L0,-36.734Z" style="fill:rgb(187,223,231);fill-rule:nonzero;"/>
            </g>
            <g transform="matrix(1,0,0,1,501.607,203.872)">
                <path d="M0,-36.734L105.029,-36.734L109.987,0L4.958,0L0,-36.734Z" style="fill:rgb(141,201,215);fill-rule:nonzero;"/>
            </g>
            <g transform="matrix(1,0,0,1,389.116,351.609)">
                <path d="M0,-44.996C-2.463,-42.091 -3.694,-37.654 -3.694,-31.687C-3.694,-25.719 -2.471,-21.267 -0.024,-18.33C2.423,-15.393 5.668,-13.925 9.709,-13.925C14.256,-13.925 17.721,-15.393 20.106,-18.33C22.489,-21.267 23.682,-25.719 23.682,-31.687C23.682,-37.623 22.458,-42.051 20.011,-44.972C17.564,-47.893 14.067,-49.353 9.52,-49.353C5.636,-49.353 2.463,-47.901 0,-44.996M-9.71,6.82L-9.71,-51.295C-9.71,-52.148 -9.402,-52.874 -8.786,-53.474C-8.17,-54.074 -7.436,-54.374 -6.584,-54.374C-5.731,-54.374 -5.005,-54.074 -4.405,-53.474C-3.805,-52.874 -3.505,-52.148 -3.505,-51.295L-3.505,-48.17C-2.495,-50 -0.798,-51.587 1.586,-52.93C3.97,-54.271 6.678,-54.942 9.709,-54.942C16.182,-54.942 21.179,-53.008 24.7,-49.14C28.221,-45.272 29.981,-39.454 29.981,-31.687C29.981,-23.887 28.212,-18.038 24.676,-14.139C21.14,-10.238 16.151,-8.289 9.709,-8.289C6.709,-8.289 4.041,-8.96 1.705,-10.302C-0.632,-11.643 -2.368,-13.246 -3.505,-15.11L-3.505,6.82C-3.505,7.641 -3.813,8.367 -4.428,8.999C-5.044,9.63 -5.763,9.946 -6.584,9.946C-7.405,9.946 -8.131,9.63 -8.763,8.999C-9.394,8.367 -9.71,7.641 -9.71,6.82" style="fill:rgb(153,153,153);fill-rule:nonzero;"/>
            </g>
            <g transform="matrix(1,0,0,1,432.074,310.544)">
                <path d="M0,18.898C0,21.488 0.916,23.509 2.747,24.961C4.578,26.413 7.342,27.14 11.036,27.14C14.667,27.14 17.793,26.05 20.414,23.871C23.035,21.693 24.345,18.646 24.345,14.73L24.345,10.657L10.657,10.657C7.373,10.657 4.776,11.352 2.865,12.741C0.955,14.13 0,16.183 0,18.898M-6.299,18.898C-6.299,14.635 -4.784,11.289 -1.752,8.857C1.279,6.426 5.415,5.21 10.657,5.21L24.345,5.21L24.345,2.605C24.345,-0.679 23.319,-3.284 21.266,-5.21C19.214,-7.136 16.419,-8.099 12.883,-8.099C10.357,-8.099 8.234,-7.704 6.513,-6.915C4.791,-6.126 3.174,-4.862 1.658,-3.126C0.868,-2.21 0.016,-1.752 -0.9,-1.752C-1.689,-1.752 -2.353,-2.029 -2.889,-2.581C-3.426,-3.133 -3.694,-3.805 -3.694,-4.594C-3.694,-5.163 -3.536,-5.715 -3.22,-6.252C-1.769,-8.557 0.316,-10.404 3.032,-11.794C5.747,-13.182 9.03,-13.878 12.883,-13.878C18.471,-13.878 22.796,-12.393 25.86,-9.426C28.923,-6.457 30.455,-2.447 30.455,2.605L30.455,29.271C30.455,30.092 30.15,30.795 29.542,31.379C28.932,31.963 28.21,32.255 27.376,32.255C26.542,32.255 25.829,31.963 25.235,31.379C24.641,30.795 24.345,30.092 24.345,29.271L24.345,25.766C23.177,27.977 21.321,29.697 18.78,30.929C16.238,32.16 13.467,32.776 10.468,32.776C5.257,32.776 1.161,31.56 -1.824,29.129C-4.807,26.698 -6.299,23.288 -6.299,18.898" style="fill:rgb(153,153,153);fill-rule:nonzero;"/>
            </g>
            <g transform="matrix(1,0,0,1,483.749,351.609)">
                <path d="M0,-44.996C-2.463,-42.091 -3.694,-37.654 -3.694,-31.687C-3.694,-25.719 -2.471,-21.267 -0.024,-18.33C2.423,-15.393 5.667,-13.925 9.709,-13.925C14.256,-13.925 17.721,-15.393 20.106,-18.33C22.489,-21.267 23.682,-25.719 23.682,-31.687C23.682,-37.623 22.458,-42.051 20.011,-44.972C17.564,-47.893 14.067,-49.353 9.52,-49.353C5.636,-49.353 2.463,-47.901 0,-44.996M-9.71,6.82L-9.71,-51.295C-9.71,-52.148 -9.402,-52.874 -8.786,-53.474C-8.17,-54.074 -7.436,-54.374 -6.584,-54.374C-5.731,-54.374 -5.005,-54.074 -4.405,-53.474C-3.805,-52.874 -3.505,-52.148 -3.505,-51.295L-3.505,-48.17C-2.495,-50 -0.798,-51.587 1.586,-52.93C3.97,-54.271 6.678,-54.942 9.709,-54.942C16.182,-54.942 21.179,-53.008 24.7,-49.14C28.221,-45.272 29.981,-39.454 29.981,-31.687C29.981,-23.887 28.212,-18.038 24.676,-14.139C21.14,-10.238 16.151,-8.289 9.709,-8.289C6.709,-8.289 4.041,-8.96 1.705,-10.302C-0.632,-11.643 -2.368,-13.246 -3.505,-15.11L-3.505,6.82C-3.505,7.641 -3.813,8.367 -4.428,8.999C-5.044,9.63 -5.763,9.946 -6.584,9.946C-7.405,9.946 -8.131,9.63 -8.763,8.999C-9.394,8.367 -9.71,7.641 -9.71,6.82" style="fill:rgb(153,153,153);fill-rule:nonzero;"/>
            </g>
            <g transform="matrix(1,0,0,1,724.086,288.378)">
                <path d="M0,44.996C2.463,42.091 3.695,37.654 3.695,31.687C3.695,25.719 2.471,21.267 0.024,18.33C-2.423,15.393 -5.667,13.925 -9.709,13.925C-14.256,13.925 -17.721,15.393 -20.106,18.33C-22.489,21.267 -23.682,25.719 -23.682,31.687C-23.682,37.623 -22.458,42.051 -20.011,44.972C-17.564,47.893 -14.067,49.353 -9.52,49.353C-5.636,49.353 -2.463,47.901 0,44.996M9.71,-6.82L9.71,51.295C9.71,52.148 9.402,52.874 8.786,53.474C8.17,54.074 7.436,54.374 6.584,54.374C5.731,54.374 5.005,54.074 4.405,53.474C3.805,52.874 3.505,52.148 3.505,51.295L3.505,48.17C2.495,50 0.798,51.587 -1.586,52.93C-3.97,54.271 -6.678,54.942 -9.709,54.942C-16.182,54.942 -21.179,53.008 -24.7,49.14C-28.221,45.272 -29.981,39.454 -29.981,31.687C-29.981,23.887 -28.212,18.038 -24.676,14.139C-21.14,10.238 -16.151,8.289 -9.709,8.289C-6.709,8.289 -4.041,8.96 -1.705,10.302C0.632,11.643 2.368,13.246 3.505,15.109L3.505,-6.82C3.505,-7.641 3.813,-8.367 4.428,-8.999C5.044,-9.63 5.763,-9.946 6.584,-9.946C7.405,-9.946 8.131,-9.63 8.763,-8.999C9.394,-8.367 9.71,-7.641 9.71,-6.82" style="fill:rgb(153,153,153);fill-rule:nonzero;"/>
            </g>
            <g transform="matrix(1,0,0,1,526.803,323.664)">
                <path d="M0,-7.341L26.097,-7.341C26.097,-9.236 25.908,-10.956 25.529,-12.504C25.15,-14.05 24.526,-15.527 23.658,-16.933C22.789,-18.337 21.51,-19.435 19.822,-20.224C18.132,-21.013 16.087,-21.408 13.688,-21.408C9.551,-21.408 6.307,-20.16 3.955,-17.666C1.602,-15.172 0.284,-11.73 0,-7.341M-6.3,-3.742C-6.3,-11.161 -4.547,-16.892 -1.042,-20.935C2.463,-24.976 7.372,-26.997 13.688,-26.997C16.182,-26.997 18.431,-26.689 20.437,-26.074C22.442,-25.458 24.1,-24.613 25.41,-23.54C26.72,-22.466 27.841,-21.297 28.773,-20.035C29.704,-18.772 30.407,-17.398 30.88,-15.914C31.355,-14.429 31.693,-13.064 31.899,-11.817C32.104,-10.569 32.207,-9.331 32.207,-8.099C32.207,-7.152 32.183,-6.417 32.136,-5.896C32.089,-5.375 31.954,-4.752 31.733,-4.026C31.512,-3.299 31.117,-2.763 30.549,-2.415C29.981,-2.068 29.239,-1.894 28.324,-1.894L0,-1.894C0,2.937 1.302,6.782 3.907,9.639C6.512,12.497 10.088,13.925 14.635,13.925C17.161,13.925 19.308,13.554 21.077,12.812C22.845,12.071 24.582,11.052 26.287,9.757C26.918,9.347 27.502,9.141 28.039,9.141C28.828,9.141 29.491,9.418 30.028,9.97C30.564,10.523 30.833,11.194 30.833,11.983C30.833,12.773 30.486,13.515 29.792,14.209C29.097,14.904 28.212,15.606 27.139,16.317C26.066,17.027 24.368,17.762 22.048,18.519C19.727,19.277 17.256,19.656 14.635,19.656C7.972,19.656 2.818,17.738 -0.829,13.902C-4.476,10.065 -6.3,4.184 -6.3,-3.742" style="fill:rgb(153,153,153);fill-rule:nonzero;"/>
            </g>
            <g transform="matrix(1,0,0,1,568.576,299.934)">
                <path d="M0,39.786L0,0.379C0,-0.504 0.3,-1.239 0.9,-1.823C1.5,-2.407 2.242,-2.699 3.127,-2.699C4.011,-2.699 4.744,-2.407 5.329,-1.823C5.913,-1.239 6.205,-0.504 6.205,0.379L6.205,4.642C7.216,2.337 8.905,0.474 11.273,-0.947C13.641,-2.368 16.451,-3.079 19.704,-3.079C20.525,-3.079 21.227,-2.786 21.812,-2.202C22.395,-1.617 22.688,-0.915 22.688,-0.094C22.688,0.727 22.395,1.437 21.812,2.037C21.227,2.637 20.525,2.937 19.704,2.937C15.378,2.937 12.047,4.31 9.71,7.058C7.373,9.805 6.205,13.468 6.205,18.046L6.205,39.786C6.205,40.67 5.913,41.405 5.329,41.989C4.744,42.572 4.011,42.865 3.127,42.865C2.242,42.865 1.5,42.572 0.9,41.989C0.3,41.405 0,40.67 0,39.786" style="fill:rgb(153,153,153);fill-rule:nonzero;"/>
            </g>
            <g transform="matrix(1,0,0,1,597.02,315.4)">
                <path d="M0,-12.41C-0.554,-12.962 -0.83,-13.649 -0.83,-14.47C-0.83,-15.291 -0.554,-15.986 0,-16.554C0.552,-17.123 1.238,-17.407 2.06,-17.407L5.376,-17.407L5.376,-23.138C5.376,-25.379 5.699,-27.479 6.346,-29.437C6.993,-31.395 7.972,-33.155 9.282,-34.718C10.593,-36.281 12.346,-37.52 14.54,-38.436C16.735,-39.352 19.269,-39.81 22.142,-39.81C22.963,-39.81 23.658,-39.526 24.227,-38.957C24.794,-38.389 25.079,-37.694 25.079,-36.873C25.079,-36.052 24.794,-35.365 24.227,-34.813C23.658,-34.26 22.963,-33.984 22.142,-33.984C18.51,-33.984 15.843,-33.013 14.138,-31.071C12.432,-29.129 11.58,-26.484 11.58,-23.138L11.58,-17.407L20.437,-17.407C21.258,-17.407 21.944,-17.123 22.497,-16.554C23.05,-15.986 23.327,-15.291 23.327,-14.47C23.327,-13.649 23.05,-12.962 22.497,-12.41C21.944,-11.857 21.258,-11.581 20.437,-11.581L11.58,-11.581L11.58,24.321C11.58,25.205 11.288,25.94 10.704,26.524C10.119,27.107 9.385,27.4 8.501,27.4C7.617,27.4 6.874,27.107 6.276,26.524C5.674,25.94 5.376,25.205 5.376,24.321L5.376,-11.581L2.06,-11.581C1.238,-11.581 0.552,-11.857 0,-12.41" style="fill:rgb(153,153,153);fill-rule:nonzero;"/>
            </g>
            <g transform="matrix(1,0,0,1,631.382,320.064)">
                <path d="M0,-0.142C0,11.699 4.689,17.62 14.067,17.62C23.445,17.62 28.134,11.699 28.134,-0.142C28.134,-11.919 23.445,-17.809 14.067,-17.809C4.689,-17.809 0,-11.919 0,-0.142M-0.923,17.383C-4.508,13.468 -6.299,7.626 -6.299,-0.142C-6.299,-7.909 -4.516,-13.727 -0.947,-17.596C2.621,-21.463 7.626,-23.398 14.067,-23.398C20.54,-23.398 25.553,-21.463 29.106,-17.596C32.657,-13.727 34.434,-7.909 34.434,-0.142C34.434,7.626 32.657,13.468 29.106,17.383C25.553,21.299 20.54,23.256 14.067,23.256C7.657,23.256 2.66,21.299 -0.923,17.383" style="fill:rgb(153,153,153);fill-rule:nonzero;"/>
            </g>
            <g transform="matrix(1,0,0,1,675.005,284.304)">
                <path d="M0,47.175L0,-8.241C0,-9.062 0.315,-9.78 0.947,-10.396C1.578,-11.012 2.304,-11.32 3.126,-11.32C3.978,-11.32 4.704,-11.019 5.304,-10.42C5.904,-9.82 6.204,-9.093 6.204,-8.241L6.204,47.175C6.204,50.869 7.499,52.716 10.088,52.716C10.877,52.716 11.563,52.993 12.148,53.545C12.732,54.098 13.024,54.785 13.024,55.605C13.024,56.427 12.732,57.114 12.148,57.666C11.563,58.218 10.877,58.495 10.088,58.495C6.835,58.495 4.341,57.54 2.604,55.63C0.868,53.719 0,50.901 0,47.175" style="fill:rgb(153,153,153);fill-rule:nonzero;"/>
            </g>
        </g>
    </g>
</svg>
